REM DIRINDEX 1\2\5,1\2\6,1\2\7,1\2\8,1\3\9,1\3\10,1\3\11,1\4\12,1\4\13,1\4\14,1\4\15,1\4\16
REM DIRNAME folder01,folder02,folder03,folder04,folder05,folder06,folder07,folder08,folder09,folder10,folder11,folder12,folder13,folder14,folder15,folder16
TITLE ""
FILE "1200_2_sec05_1573_1588.mp3" MP3
  TRACK 01 AUDIO
    TITLE "0:"
    INDEX 01 00:00:00
  TRACK 02 AUDIO
    TITLE "10:cjc034_03265"
    INDEX 01 00:00:13
  TRACK 03 AUDIO
    TITLE "0:"
    INDEX 01 00:01:15
  TRACK 04 AUDIO
    TITLE "9:cjc034_03266"
    INDEX 01 00:01:19
  TRACK 05 AUDIO
    TITLE "0:"
    INDEX 01 00:02:34
  TRACK 06 AUDIO
    TITLE "10:cjc034_03267"
    INDEX 01 00:03:12
  TRACK 07 AUDIO
    TITLE "0:"
    INDEX 01 00:05:26
  TRACK 08 AUDIO
    TITLE "9:cjc034_03268"
    INDEX 01 00:05:30
  TRACK 09 AUDIO
    TITLE "0:"
    INDEX 01 00:06:53
  TRACK 10 AUDIO
    TITLE "10:cjc034_03269"
    INDEX 01 00:07:31
  TRACK 11 AUDIO
    TITLE "0:"
    INDEX 01 00:09:28
  TRACK 12 AUDIO
    TITLE "9:cjc034_03270"
    INDEX 01 00:09:34
  TRACK 13 AUDIO
    TITLE "0:"
    INDEX 01 00:10:35
  TRACK 14 AUDIO
    TITLE "10:cjc034_03271"
    INDEX 01 00:11:19
  TRACK 15 AUDIO
    TITLE "0:"
    INDEX 01 00:12:54
  TRACK 16 AUDIO
    TITLE "9:cjc034_03272"
    INDEX 01 00:12:61
  TRACK 17 AUDIO
    TITLE "0:"
    INDEX 01 00:14:02
  TRACK 18 AUDIO
    TITLE "10:cjc034_03273"
    INDEX 01 00:14:60
  TRACK 19 AUDIO
    TITLE "0:"
    INDEX 01 00:15:72
  TRACK 20 AUDIO
    TITLE "9:cjc034_03274"
    INDEX 01 00:16:02
  TRACK 21 AUDIO
    TITLE "0:"
    INDEX 01 00:17:14
  TRACK 22 AUDIO
    TITLE "10:cjc034_03275"
    INDEX 01 00:17:74
  TRACK 23 AUDIO
    TITLE "0:"
    INDEX 01 00:19:15
  TRACK 24 AUDIO
    TITLE "9:cjc034_03276"
    INDEX 01 00:19:20
  TRACK 25 AUDIO
    TITLE "0:"
    INDEX 01 00:20:39
  TRACK 26 AUDIO
    TITLE "10:cjc034_03277"
    INDEX 01 00:21:19
  TRACK 27 AUDIO
    TITLE "0:"
    INDEX 01 00:23:42
  TRACK 28 AUDIO
    TITLE "9:cjc034_03278"
    INDEX 01 00:23:46
  TRACK 29 AUDIO
    TITLE "0:"
    INDEX 01 00:25:03
  TRACK 30 AUDIO
    TITLE "10:cjc034_03279"
    INDEX 01 00:25:58
  TRACK 31 AUDIO
    TITLE "0:"
    INDEX 01 00:26:50
  TRACK 32 AUDIO
    TITLE "9:cjc034_03280"
    INDEX 01 00:26:52
  TRACK 33 AUDIO
    TITLE "0:"
    INDEX 01 00:28:02
  TRACK 34 AUDIO
    TITLE "10:cjc034_03281"
    INDEX 01 00:28:57
  TRACK 35 AUDIO
    TITLE "0:"
    INDEX 01 00:29:58
  TRACK 36 AUDIO
    TITLE "9:cjc034_03282"
    INDEX 01 00:29:62
  TRACK 37 AUDIO
    TITLE "0:"
    INDEX 01 00:30:67
  TRACK 38 AUDIO
    TITLE "10:cjc034_03283"
    INDEX 01 00:31:49
  TRACK 39 AUDIO
    TITLE "0:"
    INDEX 01 00:32:39
  TRACK 40 AUDIO
    TITLE "9:cjc034_03284"
    INDEX 01 00:32:43
  TRACK 41 AUDIO
    TITLE "0:"
    INDEX 01 00:33:50
  TRACK 42 AUDIO
    TITLE "10:cjc034_03285"
    INDEX 01 00:34:32
  TRACK 43 AUDIO
    TITLE "0:"
    INDEX 01 00:35:39
  TRACK 44 AUDIO
    TITLE "9:cjc034_03286"
    INDEX 01 00:35:41
  TRACK 45 AUDIO
    TITLE "0:"
    INDEX 01 00:36:72
  TRACK 46 AUDIO
    TITLE "10:cjc034_03287"
    INDEX 01 00:37:54
  TRACK 47 AUDIO
    TITLE "0:"
    INDEX 01 00:38:69
  TRACK 48 AUDIO
    TITLE "9:cjc034_03288"
    INDEX 01 00:38:71
  TRACK 49 AUDIO
    TITLE "0:"
    INDEX 01 00:40:17
  TRACK 50 AUDIO
    TITLE "10:cjc034_03289"
    INDEX 01 00:40:72
  TRACK 51 AUDIO
    TITLE "0:"
    INDEX 01 00:41:65
  TRACK 52 AUDIO
    TITLE "9:cjc034_03290"
    INDEX 01 00:41:67
  TRACK 53 AUDIO
    TITLE "0:"
    INDEX 01 00:42:72
  TRACK 54 AUDIO
    TITLE "10:cjc034_03291"
    INDEX 01 00:43:54
  TRACK 55 AUDIO
    TITLE "0:"
    INDEX 01 00:44:54
  TRACK 56 AUDIO
    TITLE "9:cjc034_03292"
    INDEX 01 00:44:61
  TRACK 57 AUDIO
    TITLE "0:"
    INDEX 01 00:45:73
  TRACK 58 AUDIO
    TITLE "10:cjc034_03293"
    INDEX 01 00:46:56
  TRACK 59 AUDIO
    TITLE "0:"
    INDEX 01 00:48:46
  TRACK 60 AUDIO
    TITLE "9:cjc034_03294"
    INDEX 01 00:48:51
  TRACK 61 AUDIO
    TITLE "0:"
    INDEX 01 00:50:21
  TRACK 62 AUDIO
    TITLE "10:cjc034_03295"
    INDEX 01 00:50:66
  TRACK 63 AUDIO
    TITLE "0:"
    INDEX 01 00:53:11
  TRACK 64 AUDIO
    TITLE "9:cjc034_03296"
    INDEX 01 00:53:15
  TRACK 65 AUDIO
    TITLE "0:"
    INDEX 01 00:54:19
